<?xml version="1.0" encoding="utf-8"?>
<!-- Generator: Adobe Illustrator 26.5.1, SVG Export Plug-In . SVG Version: 6.00 Build 0)  -->
<svg version="1.1" id="Layer_1" xmlns="http://www.w3.org/2000/svg" xmlns:xlink="http://www.w3.org/1999/xlink" x="0px" y="0px"
	 viewBox="0 0 96 96" style="enable-background:new 0 0 96 96;" xml:space="preserve">
<style type="text/css">
	.st0{fill:#00A14B;}
	.st1{fill:#FFFFFF;}
	.st2{fill:#282828;}
	.st3{fill:#010101;}
	.st4{fill:#030303;}
	.st5{fill:#B40000;}
	.st6{fill:#B4B4B4;}
	.st7{fill:#FE0000;}
	.st8{fill:#FEFEFE;}
	.st9{fill:#FE6969;}
	.st10{fill:#F4F4F4;}
</style>
<g>
	<g>
		<circle class="st0" cx="70.6" cy="28.6" r="6.6"/>
	</g>
	<g>
		<g>
			<path class="st1" d="M69.4,33.1c-0.2,0-0.4-0.1-0.6-0.2c-0.4-0.3-0.5-0.9-0.1-1.3l5.2-6.4c0.3-0.4,0.9-0.5,1.3-0.1
				c0.4,0.3,0.5,0.9,0.1,1.3l-5.2,6.4C69.9,33,69.7,33.1,69.4,33.1z"/>
		</g>
		<g>
			<path class="st1" d="M69.2,33.2c-0.2,0-0.5-0.1-0.7-0.3l-2.5-2.5c-0.4-0.4-0.4-1,0-1.3c0.4-0.4,1-0.4,1.3,0l2.5,2.5
				c0.4,0.4,0.4,1,0,1.3C69.7,33.1,69.5,33.2,69.2,33.2z"/>
		</g>
	</g>
</g>
<g>
	<path class="st2" d="M-102-625.9c0,0,0-0.1,0-0.1c3.7,0,7.3,0,11,0c0,0,0,0.1,0,0.1C-94.7-625.9-98.3-625.9-102-625.9z"/>
	<path class="st2" d="M-112.7-636.8c0,0-0.1,0-0.1,0c0-3.6,0-7.3,0-10.9c0,0,0.1,0,0.1,0C-112.7-644-112.7-640.4-112.7-636.8z"/>
	<path class="st3" d="M-80.4-647.5c0,3.3,0,6.6,0,9.9c0,1,0,2.1,0,3.1c0,0.4-0.1,0.5-0.5,0.5c0,0,0,0-0.1,0c-0.6,0-1.5-0.3-1.9,0.1
		c-0.3,0.4-0.1,1.2-0.1,1.9c0,0.9,0,1.9,0,2.8c0,0.4-0.1,0.5-0.5,0.5c-2.5,0-5.1,0-7.6,0c0,0,0,0,0,0c0-0.7,0-1.4,0-2.1
		c0-0.4,0.1-0.6,0.5-0.5c1.4,0,2.9,0,4.3,0c0.4,0,0.5-0.1,0.5-0.5c0-1.7,0-3.3,0-5c0.8,0,1.6,0,2.4,0c0.3,0,0.4-0.1,0.4-0.4
		c0-0.7,0-1.3,0-2c0-0.3-0.1-0.4-0.4-0.4c-0.8,0-1.6,0-2.4,0c0-0.8,0-1.6,0-2.3c0-0.3,0.1-0.4,0.4-0.4c0.6,0,1.1,0,1.7,0
		c0.5,0,0.7-0.1,0.7-0.6c0-1.5,0-3.1,0-4.6c0,0,0-0.1,0-0.1C-82.1-647.6-81.3-647.6-80.4-647.5C-80.5-647.6-80.4-647.5-80.4-647.5z"
		/>
	<path d="M-112.7-636.8c0-3.6,0-7.2,0-10.8c0.9,0,1.7,0,2.6,0c0,0,0,0,0,0c0,1.6,0,3.3,0,4.9c0,0.4,0.1,0.5,0.5,0.5
		c0.6,0,1.2,0,1.8,0c0.4,0,0.5,0.1,0.5,0.5c0,0.8,0,1.5,0,2.3c-0.8,0-1.6,0-2.3,0c-0.4,0-0.4,0.1-0.4,0.4c0,0.8,0,1.6,0,2.3l0,0
		C-111-636.8-111.9-636.8-112.7-636.8z"/>
	<path class="st4" d="M-91-658.5c0,0.9,0,1.8,0,2.6c0,0-0.1,0-0.1,0c-2.7,0-5.4,0-8.1,0c-0.9,0-1.8,0-2.7,0l0,0c0-0.9,0-1.8,0-2.6
		c0,0,0.1-0.1,0.1-0.1C-98.3-658.6-94.7-658.6-91-658.5C-91.1-658.6-91.1-658.6-91-658.5z"/>
	<path d="M-91-626c-3.7,0-7.3,0-11,0c0-0.9,0-1.8,0-2.6l0,0c3.7,0,7.3,0,11,0c0,0,0,0,0,0C-91-627.8-91-626.9-91-626z"/>
	<path class="st4" d="M-82.9-647.6c0,0,0,0.1,0,0.1c-0.7-0.3-1.5-0.1-2.2-0.1c-0.4,0-0.6-0.1-0.6-0.5c0-1.6,0-3.2,0-4.8
		c0,0,0-0.1,0-0.1c0.9,0,1.8,0,2.6,0c0,0,0.1,0.1,0.1,0.1C-82.9-651.2-82.9-649.4-82.9-647.6z"/>
	<path class="st4" d="M-110.1-647.6c0-1.7,0-3.3,0-5c0-0.4,0.1-0.6,0.5-0.5c0.7,0,1.5,0,2.2,0l0,0c0,1.7,0,3.4,0,5
		c0,0.4-0.1,0.5-0.5,0.5C-108.6-647.7-109.4-647.6-110.1-647.6L-110.1-647.6z"/>
	<path class="st4" d="M-85.6-653.1c0,0,0,0.1,0,0.1c-0.2-0.2-0.5-0.1-0.8-0.1c-1.3,0-2.7,0-4,0c-0.4,0-0.6-0.1-0.6-0.6
		c0-0.7,0.2-1.5-0.1-2.2c0,0,0.1,0,0.1,0c1.6,0,3.2,0,4.8,0c0.4,0,0.6,0.1,0.5,0.5C-85.6-654.6-85.6-653.9-85.6-653.1z"/>
	<path class="st4" d="M-107.4-653.1c0-0.8,0-1.5,0-2.3c0-0.4,0.1-0.5,0.5-0.5c1.6,0,3.3,0,4.9,0c0,0,0,0,0,0c0,0.9,0,1.8,0,2.7
		C-103.8-653.2-105.6-653.1-107.4-653.1L-107.4-653.1z"/>
	<path class="st4" d="M-101.9-658.6C-101.9-658.6-101.9-658.6-101.9-658.6C-102-658.6-102-658.6-101.9-658.6z"/>
	<path class="st4" d="M-80.4-647.5C-80.4-647.5-80.5-647.6-80.4-647.5C-80.4-647.6-80.4-647.6-80.4-647.5z"/>
	<path class="st4" d="M-82.9-653C-82.9-653-83-653.1-82.9-653C-82.9-653.1-82.9-653.1-82.9-653z"/>
	<path class="st4" d="M-91-658.5C-91.1-658.6-91.1-658.6-91-658.5C-91-658.6-91-658.6-91-658.5z"/>
	<path class="st4" d="M-107.4-631.3c-0.8,0-1.5,0-2.3,0c-0.4,0-0.5-0.1-0.5-0.5c0-1.7,0-3.4,0-5c0,0,0,0,0,0c0.9,0,1.8,0,2.8,0
		c0,0.9,0,1.8,0,2.8C-107.4-633.1-107.4-632.2-107.4-631.3L-107.4-631.3z"/>
	<path class="st4" d="M-102-628.6c-1.6,0-3.3,0-4.9,0c-0.4,0-0.5-0.1-0.5-0.5c0-0.7,0-1.4,0-2.2c0,0,0,0,0,0c0.9,0,1.8,0,2.8,0
		c0.9,0,1.7,0,2.6,0C-102-630.4-102-629.5-102-628.6L-102-628.6z"/>
	<path class="st5" d="M-91.1-655.9c0.3,0.7,0.1,1.5,0.1,2.2c0,0.5,0.2,0.6,0.6,0.6c1.3,0,2.7,0,4,0c0.3,0,0.5,0,0.8,0.1
		c0,1.6,0,3.2,0,4.8c0,0.4,0.1,0.5,0.6,0.5c0.7,0,1.5-0.2,2.2,0.1c0,1.5,0,3.1,0,4.6c0,0.5-0.2,0.7-0.7,0.6c-0.6,0-1.1,0-1.7,0
		c-0.3,0-0.4,0.1-0.4,0.4c0,0.8,0,1.6,0,2.3l0,0c-1.6,0-3.2,0-4.8,0c-0.5,0-0.6-0.2-0.6-0.6c0-0.5,0-1.1,0-1.6
		c0-0.5-0.2-0.6-0.6-0.6c-0.7,0-1.4,0-2.2,0c0-0.9,0-1.8,0-2.7c0.7,0,1.5,0,2.2,0c0.4,0,0.6-0.1,0.6-0.6c0-1.4,0-2.8,0-4.2
		c0-0.5-0.2-0.6-0.6-0.6c-1.6,0-3.3,0-4.9,0c0-0.8,0-1.5,0-2.3c0-0.3-0.1-0.5-0.5-0.5c-0.8,0-1.5,0-2.3,0c0-0.9,0-1.8,0-2.7
		C-96.5-655.9-93.8-655.9-91.1-655.9z"/>
	<path class="st6" d="M-102-628.6c0-0.9,0-1.7,0-2.6c2.6,0,5.1,0,7.7,0c0.5,0,0.7-0.1,0.6-0.6c0-0.7,0-1.4,0-2.2c0-0.9,0-1.8,0-2.8
		c2.7,0,5.4,0,8.1,0l0,0c0,1.7,0,3.3,0,5c0,0.4-0.1,0.6-0.5,0.5c-1.4,0-2.9,0-4.3,0c-0.4,0-0.6,0.1-0.5,0.5c0,0.7,0,1.4,0,2.1
		C-94.7-628.6-98.3-628.6-102-628.6z"/>
	<path class="st6" d="M-85.6-639.5c0.8,0,1.6,0,2.4,0c0.3,0,0.4,0.1,0.4,0.4c0,0.7,0,1.3,0,2c0,0.3-0.1,0.4-0.4,0.4
		c-0.8,0-1.6,0-2.4,0c0,0,0,0,0,0C-85.6-637.7-85.6-638.6-85.6-639.5L-85.6-639.5z"/>
	<path class="st7" d="M-107.4-653.1c1.8,0,3.6,0,5.4,0c0,0,0,0,0,0c0,0.9,0,1.8,0,2.7c-0.7,0-1.4,0-2.1,0c-0.4,0-0.5,0.1-0.5,0.5
		c0,0.6,0,1.2,0,1.8c0,0.4,0.1,0.5,0.5,0.5c0.7,0,1.4,0,2.1,0c0,0.7,0,1.4,0,2.1c0,0.4,0.1,0.5,0.5,0.5c0.7,0,1.5,0,2.2,0
		c0,0,0,0,0,0c0,0.9,0,1.8,0,2.7c-0.8,0-1.5,0-2.3,0c-0.4,0-0.5,0.1-0.5,0.5c0,0.5,0,1,0,1.6c0,0.5-0.1,0.8-0.7,0.7
		c-1.6-0.1-3.1,0-4.7,0l0,0c0-0.8,0-1.5,0-2.3c0-0.4-0.1-0.5-0.5-0.5c-0.6,0-1.2,0-1.8,0c-0.4,0-0.5-0.1-0.5-0.5c0-1.6,0-3.3,0-4.9
		c0.8,0,1.5,0,2.3,0c0.4,0,0.5-0.1,0.5-0.5C-107.4-649.8-107.4-651.5-107.4-653.1z"/>
	<path class="st8" d="M-107.4-636.8c-0.9,0-1.8,0-2.8,0c0-0.8,0-1.6,0-2.3c0-0.3,0.1-0.4,0.4-0.4c0.8,0,1.6,0,2.3,0c0,0,0,0,0,0
		C-107.4-638.6-107.4-637.7-107.4-636.8L-107.4-636.8z"/>
	<path class="st7" d="M-99.3-655.9c0,0.9,0,1.8,0,2.7l0,0c-0.9,0-1.8,0-2.7,0c0,0,0,0,0,0c0-0.9,0-1.8,0-2.7
		C-101.1-655.9-100.2-655.9-99.3-655.9z"/>
	<path class="st8" d="M-93.7-634c0,0.7,0,1.4,0,2.2c0,0.5-0.2,0.6-0.6,0.6c-2.6,0-5.1,0-7.7,0c-0.9,0-1.7,0-2.6,0c0-0.8,0-1.5,0-2.3
		c0-0.3-0.1-0.5-0.5-0.5c-0.8,0-1.5,0-2.3,0c0-0.9,0-1.8,0-2.8c0,0,0,0,0,0c2.7,0,5.4,0,8.1,0c0,0.8,0,1.6,0,2.3
		c0,0.4,0.1,0.4,0.4,0.4C-97.1-634-95.4-634-93.7-634z"/>
	<path class="st6" d="M-107.3-634c0.8,0,1.5,0,2.3,0c0.3,0,0.5,0.1,0.5,0.5c0,0.8,0,1.5,0,2.3c-0.9,0-1.8,0-2.8,0
		C-107.4-632.2-107.4-633.1-107.3-634z"/>
	<path class="st7" d="M-96.5-650.4c1.6,0,3.3,0,4.9,0c0.4,0,0.6,0.1,0.6,0.6c0,1.4,0,2.8,0,4.2c0,0.4-0.1,0.6-0.6,0.6
		c-0.7,0-1.5,0-2.2,0c-1.8,0-3.7,0-5.5,0c0,0,0,0,0,0c0-0.9,0-1.7,0-2.6c0.7,0,1.5,0,2.2,0c0.4,0,0.5-0.1,0.5-0.5
		C-96.5-648.9-96.5-649.6-96.5-650.4L-96.5-650.4z"/>
	<path d="M-85.6-639.5c0,0.9,0,1.8,0,2.8c-2.7,0-5.4,0-8.1,0c0,0,0,0,0,0c0-1.8,0-3.7,0-5.5l0,0c0.7,0,1.4,0,2.2,0
		c0.4,0,0.6,0.1,0.6,0.6c0,0.5,0,1.1,0,1.6c0,0.5,0.1,0.6,0.6,0.6C-88.8-639.5-87.2-639.5-85.6-639.5z"/>
	<path d="M-99.2-645c1.8,0,3.7,0,5.5,0c0,0.9,0,1.8,0,2.7l0,0c-1.8,0-3.7,0-5.5,0l0,0C-99.2-643.2-99.2-644.1-99.2-645z"/>
	<path class="st7" d="M-99.2-653.2c0.8,0,1.5,0,2.3,0c0.3,0,0.5,0.1,0.5,0.5c0,0.8,0,1.5,0,2.3c0,0,0,0,0,0c-0.9,0-1.8,0-2.7,0
		C-99.2-651.3-99.2-652.2-99.2-653.2L-99.2-653.2z"/>
	<path d="M-93.7-634c-1.7,0-3.4,0-5.1,0c-0.3,0-0.5-0.1-0.4-0.4c0-0.8,0-1.6,0-2.3l0,0c1.8,0,3.7,0,5.5,0c0,0,0,0,0,0
		C-93.7-635.8-93.7-634.9-93.7-634z"/>
	<path d="M-99.2-636.8c-2.7,0-5.4,0-8.1,0c0-0.9,0-1.8,0-2.8c1.6,0,3.1,0,4.7,0c0.6,0,0.7-0.2,0.7-0.7c0-0.5,0-1,0-1.6
		c0-0.4,0.1-0.5,0.5-0.5c0.8,0,1.5,0,2.3,0c0,0,0,0,0,0C-99.2-640.4-99.2-638.6-99.2-636.8L-99.2-636.8z"/>
	<path class="st9" d="M-99.3-653.1c0,0.9,0,1.8,0,2.7l0,0c-0.9,0-1.8,0-2.7,0l0,0c0-0.9,0-1.8,0-2.7
		C-101.1-653.1-100.2-653.1-99.3-653.1z"/>
	<path class="st9" d="M-99.2-647.6c0,0.9,0,1.7,0,2.6c-0.7,0-1.5,0-2.2,0c-0.4,0-0.5-0.1-0.5-0.5c0-0.7,0-1.4,0-2.1l0,0
		C-101.1-647.7-100.2-647.7-99.2-647.6L-99.2-647.6z"/>
	<path class="st9" d="M-102-647.6c-0.7,0-1.4,0-2.1,0c-0.4,0-0.5-0.1-0.5-0.5c0-0.6,0-1.2,0-1.8c0-0.4,0.1-0.5,0.5-0.5
		c0.7,0,1.4,0,2.1,0c0,0,0,0,0,0C-102-649.5-102-648.6-102-647.6L-102-647.6z"/>
	<path class="st9" d="M-99.2-650.4c0.9,0,1.8,0,2.7,0c0,0.7,0,1.5,0,2.2c0,0.4-0.1,0.5-0.5,0.5c-0.7,0-1.5,0-2.2,0c0,0,0,0,0,0
		C-99.3-648.6-99.3-649.5-99.2-650.4L-99.2-650.4z"/>
	<path class="st8" d="M-99.3-636.7c0-1.8,0-3.7,0-5.5c1.8,0,3.7,0,5.5,0c0,1.8,0,3.7,0,5.5C-95.6-636.8-97.4-636.8-99.3-636.7z"/>
	<path class="st10" d="M-99.3-650.4c0,0.9,0,1.8,0,2.7c-0.9,0-1.8,0-2.7,0c0-0.9,0-1.8,0-2.7C-101.1-650.4-100.2-650.4-99.3-650.4z"
		/>
</g>
<g>
	<path class="st2" d="M-102-625.9c0,0,0-0.1,0-0.1c3.7,0,7.3,0,11,0c0,0,0,0.1,0,0.1C-94.7-625.9-98.3-625.9-102-625.9z"/>
	<path class="st2" d="M-112.7-636.8c0,0-0.1,0-0.1,0c0-3.6,0-7.3,0-10.9c0,0,0.1,0,0.1,0C-112.7-644-112.7-640.4-112.7-636.8z"/>
	<path class="st3" d="M-80.4-647.5c0,3.3,0,6.6,0,9.9c0,1,0,2.1,0,3.1c0,0.4-0.1,0.5-0.5,0.5c0,0,0,0-0.1,0c-0.6,0-1.5-0.3-1.9,0.1
		c-0.3,0.4-0.1,1.2-0.1,1.9c0,0.9,0,1.9,0,2.8c0,0.4-0.1,0.5-0.5,0.5c-2.5,0-5.1,0-7.6,0c0,0,0,0,0,0c0-0.7,0-1.4,0-2.1
		c0-0.4,0.1-0.6,0.5-0.5c1.4,0,2.9,0,4.3,0c0.4,0,0.5-0.1,0.5-0.5c0-1.7,0-3.3,0-5c0.8,0,1.6,0,2.4,0c0.3,0,0.4-0.1,0.4-0.4
		c0-0.7,0-1.3,0-2c0-0.3-0.1-0.4-0.4-0.4c-0.8,0-1.6,0-2.4,0c0-0.8,0-1.6,0-2.3c0-0.3,0.1-0.4,0.4-0.4c0.6,0,1.1,0,1.7,0
		c0.5,0,0.7-0.1,0.7-0.6c0-1.5,0-3.1,0-4.6c0,0,0-0.1,0-0.1C-82.1-647.6-81.3-647.6-80.4-647.5C-80.5-647.6-80.4-647.5-80.4-647.5z"
		/>
	<path d="M-112.7-636.8c0-3.6,0-7.2,0-10.8c0.9,0,1.7,0,2.6,0c0,0,0,0,0,0c0,1.6,0,3.3,0,4.9c0,0.4,0.1,0.5,0.5,0.5
		c0.6,0,1.2,0,1.8,0c0.4,0,0.5,0.1,0.5,0.5c0,0.8,0,1.5,0,2.3c-0.8,0-1.6,0-2.3,0c-0.4,0-0.4,0.1-0.4,0.4c0,0.8,0,1.6,0,2.3l0,0
		C-111-636.8-111.9-636.8-112.7-636.8z"/>
	<path class="st4" d="M-91-658.5c0,0.9,0,1.8,0,2.6c0,0-0.1,0-0.1,0c-2.7,0-5.4,0-8.1,0c-0.9,0-1.8,0-2.7,0l0,0c0-0.9,0-1.8,0-2.6
		c0,0,0.1-0.1,0.1-0.1C-98.3-658.6-94.7-658.6-91-658.5C-91.1-658.6-91.1-658.6-91-658.5z"/>
	<path d="M-91-626c-3.7,0-7.3,0-11,0c0-0.9,0-1.8,0-2.6l0,0c3.7,0,7.3,0,11,0c0,0,0,0,0,0C-91-627.8-91-626.9-91-626z"/>
	<path class="st4" d="M-82.9-647.6c0,0,0,0.1,0,0.1c-0.7-0.3-1.5-0.1-2.2-0.1c-0.4,0-0.6-0.1-0.6-0.5c0-1.6,0-3.2,0-4.8
		c0,0,0-0.1,0-0.1c0.9,0,1.8,0,2.6,0c0,0,0.1,0.1,0.1,0.1C-82.9-651.2-82.9-649.4-82.9-647.6z"/>
	<path class="st4" d="M-110.1-647.6c0-1.7,0-3.3,0-5c0-0.4,0.1-0.6,0.5-0.5c0.7,0,1.5,0,2.2,0l0,0c0,1.7,0,3.4,0,5
		c0,0.4-0.1,0.5-0.5,0.5C-108.6-647.7-109.4-647.6-110.1-647.6L-110.1-647.6z"/>
	<path class="st4" d="M-85.6-653.1c0,0,0,0.1,0,0.1c-0.2-0.2-0.5-0.1-0.8-0.1c-1.3,0-2.7,0-4,0c-0.4,0-0.6-0.1-0.6-0.6
		c0-0.7,0.2-1.5-0.1-2.2c0,0,0.1,0,0.1,0c1.6,0,3.2,0,4.8,0c0.4,0,0.6,0.1,0.5,0.5C-85.6-654.6-85.6-653.9-85.6-653.1z"/>
	<path class="st4" d="M-107.4-653.1c0-0.8,0-1.5,0-2.3c0-0.4,0.1-0.5,0.5-0.5c1.6,0,3.3,0,4.9,0c0,0,0,0,0,0c0,0.9,0,1.8,0,2.7
		C-103.8-653.2-105.6-653.1-107.4-653.1L-107.4-653.1z"/>
	<path class="st4" d="M-101.9-658.6C-101.9-658.6-101.9-658.6-101.9-658.6C-102-658.6-102-658.6-101.9-658.6z"/>
	<path class="st4" d="M-80.4-647.5C-80.4-647.5-80.5-647.6-80.4-647.5C-80.4-647.6-80.4-647.6-80.4-647.5z"/>
	<path class="st4" d="M-82.9-653C-82.9-653-83-653.1-82.9-653C-82.9-653.1-82.9-653.1-82.9-653z"/>
	<path class="st4" d="M-91-658.5C-91.1-658.6-91.1-658.6-91-658.5C-91-658.6-91-658.6-91-658.5z"/>
	<path class="st4" d="M-107.4-631.3c-0.8,0-1.5,0-2.3,0c-0.4,0-0.5-0.1-0.5-0.5c0-1.7,0-3.4,0-5c0,0,0,0,0,0c0.9,0,1.8,0,2.8,0
		c0,0.9,0,1.8,0,2.8C-107.4-633.1-107.4-632.2-107.4-631.3L-107.4-631.3z"/>
	<path class="st4" d="M-102-628.6c-1.6,0-3.3,0-4.9,0c-0.4,0-0.5-0.1-0.5-0.5c0-0.7,0-1.4,0-2.2c0,0,0,0,0,0c0.9,0,1.8,0,2.8,0
		c0.9,0,1.7,0,2.6,0C-102-630.4-102-629.5-102-628.6L-102-628.6z"/>
	<path class="st5" d="M-91.1-655.9c0.3,0.7,0.1,1.5,0.1,2.2c0,0.5,0.2,0.6,0.6,0.6c1.3,0,2.7,0,4,0c0.3,0,0.5,0,0.8,0.1
		c0,1.6,0,3.2,0,4.8c0,0.4,0.1,0.5,0.6,0.5c0.7,0,1.5-0.2,2.2,0.1c0,1.5,0,3.1,0,4.6c0,0.5-0.2,0.7-0.7,0.6c-0.6,0-1.1,0-1.7,0
		c-0.3,0-0.4,0.1-0.4,0.4c0,0.8,0,1.6,0,2.3l0,0c-1.6,0-3.2,0-4.8,0c-0.5,0-0.6-0.2-0.6-0.6c0-0.5,0-1.1,0-1.6
		c0-0.5-0.2-0.6-0.6-0.6c-0.7,0-1.4,0-2.2,0c0-0.9,0-1.8,0-2.7c0.7,0,1.5,0,2.2,0c0.4,0,0.6-0.1,0.6-0.6c0-1.4,0-2.8,0-4.2
		c0-0.5-0.2-0.6-0.6-0.6c-1.6,0-3.3,0-4.9,0c0-0.8,0-1.5,0-2.3c0-0.3-0.1-0.5-0.5-0.5c-0.8,0-1.5,0-2.3,0c0-0.9,0-1.8,0-2.7
		C-96.5-655.9-93.8-655.9-91.1-655.9z"/>
	<path class="st6" d="M-102-628.6c0-0.9,0-1.7,0-2.6c2.6,0,5.1,0,7.7,0c0.5,0,0.7-0.1,0.6-0.6c0-0.7,0-1.4,0-2.2c0-0.9,0-1.8,0-2.8
		c2.7,0,5.4,0,8.1,0l0,0c0,1.7,0,3.3,0,5c0,0.4-0.1,0.6-0.5,0.5c-1.4,0-2.9,0-4.3,0c-0.4,0-0.6,0.1-0.5,0.5c0,0.7,0,1.4,0,2.1
		C-94.7-628.6-98.3-628.6-102-628.6z"/>
	<path class="st6" d="M-85.6-639.5c0.8,0,1.6,0,2.4,0c0.3,0,0.4,0.1,0.4,0.4c0,0.7,0,1.3,0,2c0,0.3-0.1,0.4-0.4,0.4
		c-0.8,0-1.6,0-2.4,0c0,0,0,0,0,0C-85.6-637.7-85.6-638.6-85.6-639.5L-85.6-639.5z"/>
	<path class="st7" d="M-107.4-653.1c1.8,0,3.6,0,5.4,0c0,0,0,0,0,0c0,0.9,0,1.8,0,2.7c-0.7,0-1.4,0-2.1,0c-0.4,0-0.5,0.1-0.5,0.5
		c0,0.6,0,1.2,0,1.8c0,0.4,0.1,0.5,0.5,0.5c0.7,0,1.4,0,2.1,0c0,0.7,0,1.4,0,2.1c0,0.4,0.1,0.5,0.5,0.5c0.7,0,1.5,0,2.2,0
		c0,0,0,0,0,0c0,0.9,0,1.8,0,2.7c-0.8,0-1.5,0-2.3,0c-0.4,0-0.5,0.1-0.5,0.5c0,0.5,0,1,0,1.6c0,0.5-0.1,0.8-0.7,0.7
		c-1.6-0.1-3.1,0-4.7,0l0,0c0-0.8,0-1.5,0-2.3c0-0.4-0.1-0.5-0.5-0.5c-0.6,0-1.2,0-1.8,0c-0.4,0-0.5-0.1-0.5-0.5c0-1.6,0-3.3,0-4.9
		c0.8,0,1.5,0,2.3,0c0.4,0,0.5-0.1,0.5-0.5C-107.4-649.8-107.4-651.5-107.4-653.1z"/>
	<path class="st8" d="M-107.4-636.8c-0.9,0-1.8,0-2.8,0c0-0.8,0-1.6,0-2.3c0-0.3,0.1-0.4,0.4-0.4c0.8,0,1.6,0,2.3,0c0,0,0,0,0,0
		C-107.4-638.6-107.4-637.7-107.4-636.8L-107.4-636.8z"/>
	<path class="st7" d="M-99.3-655.9c0,0.9,0,1.8,0,2.7l0,0c-0.9,0-1.8,0-2.7,0c0,0,0,0,0,0c0-0.9,0-1.8,0-2.7
		C-101.1-655.9-100.2-655.9-99.3-655.9z"/>
	<path class="st8" d="M-93.7-634c0,0.7,0,1.4,0,2.2c0,0.5-0.2,0.6-0.6,0.6c-2.6,0-5.1,0-7.7,0c-0.9,0-1.7,0-2.6,0c0-0.8,0-1.5,0-2.3
		c0-0.3-0.1-0.5-0.5-0.5c-0.8,0-1.5,0-2.3,0c0-0.9,0-1.8,0-2.8c0,0,0,0,0,0c2.7,0,5.4,0,8.1,0c0,0.8,0,1.6,0,2.3
		c0,0.4,0.1,0.4,0.4,0.4C-97.1-634-95.4-634-93.7-634z"/>
	<path class="st6" d="M-107.3-634c0.8,0,1.5,0,2.3,0c0.3,0,0.5,0.1,0.5,0.5c0,0.8,0,1.5,0,2.3c-0.9,0-1.8,0-2.8,0
		C-107.4-632.2-107.4-633.1-107.3-634z"/>
	<path class="st7" d="M-96.5-650.4c1.6,0,3.3,0,4.9,0c0.4,0,0.6,0.1,0.6,0.6c0,1.4,0,2.8,0,4.2c0,0.4-0.1,0.6-0.6,0.6
		c-0.7,0-1.5,0-2.2,0c-1.8,0-3.7,0-5.5,0c0,0,0,0,0,0c0-0.9,0-1.7,0-2.6c0.7,0,1.5,0,2.2,0c0.4,0,0.5-0.1,0.5-0.5
		C-96.5-648.9-96.5-649.6-96.5-650.4L-96.5-650.4z"/>
	<path d="M-85.6-639.5c0,0.9,0,1.8,0,2.8c-2.7,0-5.4,0-8.1,0c0,0,0,0,0,0c0-1.8,0-3.7,0-5.5l0,0c0.7,0,1.4,0,2.2,0
		c0.4,0,0.6,0.1,0.6,0.6c0,0.5,0,1.1,0,1.6c0,0.5,0.1,0.6,0.6,0.6C-88.8-639.5-87.2-639.5-85.6-639.5z"/>
	<path d="M-99.2-645c1.8,0,3.7,0,5.5,0c0,0.9,0,1.8,0,2.7l0,0c-1.8,0-3.7,0-5.5,0l0,0C-99.2-643.2-99.2-644.1-99.2-645z"/>
	<path class="st7" d="M-99.2-653.2c0.8,0,1.5,0,2.3,0c0.3,0,0.5,0.1,0.5,0.5c0,0.8,0,1.5,0,2.3c0,0,0,0,0,0c-0.9,0-1.8,0-2.7,0
		C-99.2-651.3-99.2-652.2-99.2-653.2L-99.2-653.2z"/>
	<path d="M-93.7-634c-1.7,0-3.4,0-5.1,0c-0.3,0-0.5-0.1-0.4-0.4c0-0.8,0-1.6,0-2.3l0,0c1.8,0,3.7,0,5.5,0c0,0,0,0,0,0
		C-93.7-635.8-93.7-634.9-93.7-634z"/>
	<path d="M-99.2-636.8c-2.7,0-5.4,0-8.1,0c0-0.9,0-1.8,0-2.8c1.6,0,3.1,0,4.7,0c0.6,0,0.7-0.2,0.7-0.7c0-0.5,0-1,0-1.6
		c0-0.4,0.1-0.5,0.5-0.5c0.8,0,1.5,0,2.3,0c0,0,0,0,0,0C-99.2-640.4-99.2-638.6-99.2-636.8L-99.2-636.8z"/>
	<path class="st9" d="M-99.3-653.1c0,0.9,0,1.8,0,2.7l0,0c-0.9,0-1.8,0-2.7,0l0,0c0-0.9,0-1.8,0-2.7
		C-101.1-653.1-100.2-653.1-99.3-653.1z"/>
	<path class="st9" d="M-99.2-647.6c0,0.9,0,1.7,0,2.6c-0.7,0-1.5,0-2.2,0c-0.4,0-0.5-0.1-0.5-0.5c0-0.7,0-1.4,0-2.1l0,0
		C-101.1-647.7-100.2-647.7-99.2-647.6L-99.2-647.6z"/>
	<path class="st9" d="M-102-647.6c-0.7,0-1.4,0-2.1,0c-0.4,0-0.5-0.1-0.5-0.5c0-0.6,0-1.2,0-1.8c0-0.4,0.1-0.5,0.5-0.5
		c0.7,0,1.4,0,2.1,0c0,0,0,0,0,0C-102-649.5-102-648.6-102-647.6L-102-647.6z"/>
	<path class="st9" d="M-99.2-650.4c0.9,0,1.8,0,2.7,0c0,0.7,0,1.5,0,2.2c0,0.4-0.1,0.5-0.5,0.5c-0.7,0-1.5,0-2.2,0c0,0,0,0,0,0
		C-99.3-648.6-99.3-649.5-99.2-650.4L-99.2-650.4z"/>
	<path class="st8" d="M-99.3-636.7c0-1.8,0-3.7,0-5.5c1.8,0,3.7,0,5.5,0c0,1.8,0,3.7,0,5.5C-95.6-636.8-97.4-636.8-99.3-636.7z"/>
	<path class="st10" d="M-99.3-650.4c0,0.9,0,1.8,0,2.7c-0.9,0-1.8,0-2.7,0c0-0.9,0-1.8,0-2.7C-101.1-650.4-100.2-650.4-99.3-650.4z"
		/>
</g>
<g>
	<path class="st2" d="M44.1,65.5c0,0,0-0.1,0-0.1c3.7,0,7.3,0,11,0c0,0,0,0.1,0,0.1C51.4,65.5,47.7,65.5,44.1,65.5z"/>
	<path class="st2" d="M33.3,54.6c0,0-0.1,0-0.1,0c0-3.6,0-7.3,0-10.9c0,0,0.1,0,0.1,0C33.3,47.4,33.3,51,33.3,54.6z"/>
	<path class="st3" d="M65.7,43.9c0,3.3,0,6.6,0,9.9c0,1,0,2.1,0,3.1c0,0.4-0.1,0.5-0.5,0.5c0,0,0,0-0.1,0c-0.6,0-1.5-0.3-1.9,0.1
		c-0.3,0.4-0.1,1.2-0.1,1.9c0,0.9,0,1.9,0,2.8c0,0.4-0.1,0.5-0.5,0.5c-2.5,0-5.1,0-7.6,0c0,0,0,0,0,0c0-0.7,0-1.4,0-2.1
		c0-0.4,0.1-0.6,0.5-0.5c1.4,0,2.9,0,4.3,0c0.4,0,0.5-0.1,0.5-0.5c0-1.7,0-3.3,0-5c0.8,0,1.6,0,2.4,0c0.3,0,0.4-0.1,0.4-0.4
		c0-0.7,0-1.3,0-2c0-0.3-0.1-0.4-0.4-0.4c-0.8,0-1.6,0-2.4,0c0-0.8,0-1.6,0-2.3c0-0.3,0.1-0.4,0.4-0.4c0.6,0,1.1,0,1.7,0
		c0.5,0,0.7-0.1,0.7-0.6c0-1.5,0-3.1,0-4.6c0,0,0-0.1,0-0.1C64,43.7,64.8,43.8,65.7,43.9C65.6,43.8,65.6,43.8,65.7,43.9z"/>
	<path d="M33.3,54.6c0-3.6,0-7.2,0-10.8c0.9,0,1.7,0,2.6,0c0,0,0,0,0,0c0,1.6,0,3.3,0,4.9c0,0.4,0.1,0.5,0.5,0.5c0.6,0,1.2,0,1.8,0
		c0.4,0,0.5,0.1,0.5,0.5c0,0.8,0,1.5,0,2.3c-0.8,0-1.6,0-2.3,0c-0.4,0-0.4,0.1-0.4,0.4c0,0.8,0,1.6,0,2.3l0,0
		C35.1,54.6,34.2,54.6,33.3,54.6z"/>
	<path class="st4" d="M55,32.8c0,0.9,0,1.8,0,2.6c0,0-0.1,0-0.1,0c-2.7,0-5.4,0-8.1,0c-0.9,0-1.8,0-2.7,0l0,0c0-0.9,0-1.8,0-2.6
		c0,0,0.1-0.1,0.1-0.1C47.8,32.8,51.4,32.8,55,32.8C55,32.8,55,32.8,55,32.8z"/>
	<path d="M55,65.4c-3.7,0-7.3,0-11,0c0-0.9,0-1.8,0-2.6l0,0c3.7,0,7.3,0,11,0c0,0,0,0,0,0C55.1,63.6,55,64.5,55,65.4z"/>
	<path class="st4" d="M63.2,43.7c0,0,0,0.1,0,0.1c-0.7-0.3-1.5-0.1-2.2-0.1c-0.4,0-0.6-0.1-0.6-0.5c0-1.6,0-3.2,0-4.8
		c0,0,0-0.1,0-0.1c0.9,0,1.8,0,2.6,0c0,0,0.1,0.1,0.1,0.1C63.2,40.1,63.2,41.9,63.2,43.7z"/>
	<path class="st4" d="M35.9,43.7c0-1.7,0-3.3,0-5c0-0.4,0.1-0.6,0.5-0.5c0.7,0,1.5,0,2.2,0l0,0c0,1.7,0,3.4,0,5
		c0,0.4-0.1,0.5-0.5,0.5C37.5,43.7,36.7,43.7,35.9,43.7L35.9,43.7z"/>
	<path class="st4" d="M60.4,38.2c0,0,0,0.1,0,0.1c-0.2-0.2-0.5-0.1-0.8-0.1c-1.3,0-2.7,0-4,0c-0.4,0-0.6-0.1-0.6-0.6
		c0-0.7,0.2-1.5-0.1-2.2c0,0,0.1,0,0.1,0c1.6,0,3.2,0,4.8,0c0.4,0,0.6,0.1,0.5,0.5C60.4,36.7,60.4,37.5,60.4,38.2z"/>
	<path class="st4" d="M38.7,38.2c0-0.8,0-1.5,0-2.3c0-0.4,0.1-0.5,0.5-0.5c1.6,0,3.3,0,4.9,0c0,0,0,0,0,0c0,0.9,0,1.8,0,2.7
		C42.3,38.2,40.5,38.2,38.7,38.2L38.7,38.2z"/>
	<path class="st4" d="M44.2,32.8C44.2,32.8,44.1,32.8,44.2,32.8C44.1,32.8,44.1,32.7,44.2,32.8z"/>
	<path class="st4" d="M65.7,43.9C65.6,43.8,65.6,43.8,65.7,43.9C65.7,43.7,65.7,43.8,65.7,43.9z"/>
	<path class="st4" d="M63.2,38.4C63.1,38.3,63.1,38.3,63.2,38.4C63.2,38.2,63.2,38.3,63.2,38.4z"/>
	<path class="st4" d="M55,32.8C55,32.8,55,32.8,55,32.8C55,32.7,55.1,32.8,55,32.8z"/>
	<path class="st4" d="M38.7,60.1c-0.8,0-1.5,0-2.3,0c-0.4,0-0.5-0.1-0.5-0.5c0-1.7,0-3.4,0-5c0,0,0,0,0,0c0.9,0,1.8,0,2.8,0
		c0,0.9,0,1.8,0,2.8C38.7,58.3,38.7,59.2,38.7,60.1L38.7,60.1z"/>
	<path class="st4" d="M44.1,62.7c-1.6,0-3.3,0-4.9,0c-0.4,0-0.5-0.1-0.5-0.5c0-0.7,0-1.4,0-2.2c0,0,0,0,0,0c0.9,0,1.8,0,2.8,0
		c0.9,0,1.7,0,2.6,0C44,61,44.1,61.9,44.1,62.7L44.1,62.7z"/>
	<path class="st5" d="M55,35.5c0.3,0.7,0.1,1.5,0.1,2.2c0,0.5,0.2,0.6,0.6,0.6c1.3,0,2.7,0,4,0c0.3,0,0.5,0,0.8,0.1
		c0,1.6,0,3.2,0,4.8c0,0.4,0.1,0.5,0.6,0.5c0.7,0,1.5-0.2,2.2,0.1c0,1.5,0,3.1,0,4.6c0,0.5-0.2,0.7-0.7,0.6c-0.6,0-1.1,0-1.7,0
		c-0.3,0-0.4,0.1-0.4,0.4c0,0.8,0,1.6,0,2.3l0,0c-1.6,0-3.2,0-4.8,0c-0.5,0-0.6-0.2-0.6-0.6c0-0.5,0-1.1,0-1.6
		c0-0.5-0.2-0.6-0.6-0.6c-0.7,0-1.4,0-2.2,0c0-0.9,0-1.8,0-2.7c0.7,0,1.5,0,2.2,0c0.4,0,0.6-0.1,0.6-0.6c0-1.4,0-2.8,0-4.2
		c0-0.5-0.2-0.6-0.6-0.6c-1.6,0-3.3,0-4.9,0c0-0.8,0-1.5,0-2.3c0-0.3-0.1-0.5-0.5-0.5c-0.8,0-1.5,0-2.3,0c0-0.9,0-1.8,0-2.7
		C49.5,35.5,52.2,35.5,55,35.5z"/>
	<path class="st6" d="M44.1,62.7c0-0.9,0-1.7,0-2.6c2.6,0,5.1,0,7.7,0c0.5,0,0.7-0.1,0.6-0.6c0-0.7,0-1.4,0-2.2c0-0.9,0-1.8,0-2.8
		c2.7,0,5.4,0,8.1,0l0,0c0,1.7,0,3.3,0,5c0,0.4-0.1,0.6-0.5,0.5c-1.4,0-2.9,0-4.3,0c-0.4,0-0.6,0.1-0.5,0.5c0,0.7,0,1.4,0,2.1
		C51.4,62.7,47.7,62.7,44.1,62.7z"/>
	<path class="st6" d="M60.4,51.9c0.8,0,1.6,0,2.4,0c0.3,0,0.4,0.1,0.4,0.4c0,0.7,0,1.3,0,2c0,0.3-0.1,0.4-0.4,0.4
		c-0.8,0-1.6,0-2.4,0c0,0,0,0,0,0C60.5,53.7,60.5,52.8,60.4,51.9L60.4,51.9z"/>
	<path class="st7" d="M38.7,38.2c1.8,0,3.6,0,5.4,0c0,0,0,0,0,0c0,0.9,0,1.8,0,2.7c-0.7,0-1.4,0-2.1,0c-0.4,0-0.5,0.1-0.5,0.5
		c0,0.6,0,1.2,0,1.8c0,0.4,0.1,0.5,0.5,0.5c0.7,0,1.4,0,2.1,0c0,0.7,0,1.4,0,2.1c0,0.4,0.1,0.5,0.5,0.5c0.7,0,1.5,0,2.2,0
		c0,0,0,0,0,0c0,0.9,0,1.8,0,2.7c-0.8,0-1.5,0-2.3,0c-0.4,0-0.5,0.1-0.5,0.5c0,0.5,0,1,0,1.6c0,0.5-0.1,0.8-0.7,0.7
		c-1.6-0.1-3.1,0-4.7,0l0,0c0-0.8,0-1.5,0-2.3c0-0.4-0.1-0.5-0.5-0.5c-0.6,0-1.2,0-1.8,0c-0.4,0-0.5-0.1-0.5-0.5c0-1.6,0-3.3,0-4.9
		c0.8,0,1.5,0,2.3,0c0.4,0,0.5-0.1,0.5-0.5C38.7,41.6,38.7,39.9,38.7,38.2z"/>
	<path class="st8" d="M38.7,54.6c-0.9,0-1.8,0-2.8,0c0-0.8,0-1.6,0-2.3c0-0.3,0.1-0.4,0.4-0.4c0.8,0,1.6,0,2.3,0c0,0,0,0,0,0
		C38.7,52.8,38.7,53.7,38.7,54.6L38.7,54.6z"/>
	<path class="st7" d="M46.8,35.5c0,0.9,0,1.8,0,2.7l0,0c-0.9,0-1.8,0-2.7,0c0,0,0,0,0,0c0-0.9,0-1.8,0-2.7
		C45,35.5,45.9,35.5,46.8,35.5z"/>
	<path class="st8" d="M52.3,57.4c0,0.7,0,1.4,0,2.2c0,0.5-0.2,0.6-0.6,0.6c-2.6,0-5.1,0-7.7,0c-0.9,0-1.7,0-2.6,0c0-0.8,0-1.5,0-2.3
		c0-0.3-0.1-0.5-0.5-0.5c-0.8,0-1.5,0-2.3,0c0-0.9,0-1.8,0-2.8c0,0,0,0,0,0c2.7,0,5.4,0,8.1,0c0,0.8,0,1.6,0,2.3
		c0,0.4,0.1,0.4,0.4,0.4C48.9,57.4,50.6,57.4,52.3,57.4z"/>
	<path class="st6" d="M38.7,57.4c0.8,0,1.5,0,2.3,0c0.3,0,0.5,0.1,0.5,0.5c0,0.8,0,1.5,0,2.3c-0.9,0-1.8,0-2.8,0
		C38.7,59.2,38.7,58.3,38.7,57.4z"/>
	<path class="st7" d="M49.6,41c1.6,0,3.3,0,4.9,0c0.4,0,0.6,0.1,0.6,0.6c0,1.4,0,2.8,0,4.2c0,0.4-0.1,0.6-0.6,0.6
		c-0.7,0-1.5,0-2.2,0c-1.8,0-3.7,0-5.5,0c0,0,0,0,0,0c0-0.9,0-1.7,0-2.6c0.7,0,1.5,0,2.2,0c0.4,0,0.5-0.1,0.5-0.5
		C49.5,42.5,49.6,41.7,49.6,41L49.6,41z"/>
	<path d="M60.5,51.9c0,0.9,0,1.8,0,2.8c-2.7,0-5.4,0-8.1,0c0,0,0,0,0,0c0-1.8,0-3.7,0-5.5l0,0c0.7,0,1.4,0,2.2,0
		c0.4,0,0.6,0.1,0.6,0.6c0,0.5,0,1.1,0,1.6c0,0.5,0.1,0.6,0.6,0.6C57.3,51.8,58.9,51.9,60.5,51.9z"/>
	<path d="M46.8,46.4c1.8,0,3.7,0,5.5,0c0,0.9,0,1.8,0,2.7l0,0c-1.8,0-3.7,0-5.5,0l0,0C46.8,48.2,46.8,47.3,46.8,46.4z"/>
	<path class="st7" d="M46.8,38.2c0.8,0,1.5,0,2.3,0c0.3,0,0.5,0.1,0.5,0.5c0,0.8,0,1.5,0,2.3c0,0,0,0,0,0c-0.9,0-1.8,0-2.7,0
		C46.8,40,46.8,39.1,46.8,38.2L46.8,38.2z"/>
	<path d="M52.3,57.4c-1.7,0-3.4,0-5.1,0c-0.3,0-0.5-0.1-0.4-0.4c0-0.8,0-1.6,0-2.3l0,0c1.8,0,3.7,0,5.5,0c0,0,0,0,0,0
		C52.3,55.5,52.3,56.4,52.3,57.4z"/>
	<path d="M46.8,54.6c-2.7,0-5.4,0-8.1,0c0-0.9,0-1.8,0-2.8c1.6,0,3.1,0,4.7,0c0.6,0,0.7-0.2,0.7-0.7c0-0.5,0-1,0-1.6
		c0-0.4,0.1-0.5,0.5-0.5c0.8,0,1.5,0,2.3,0c0,0,0,0,0,0C46.8,50.9,46.8,52.8,46.8,54.6L46.8,54.6z"/>
	<path class="st9" d="M46.8,38.2c0,0.9,0,1.8,0,2.7l0,0c-0.9,0-1.8,0-2.7,0l0,0c0-0.9,0-1.8,0-2.7C45,38.2,45.9,38.2,46.8,38.2z"/>
	<path class="st9" d="M46.8,43.8c0,0.9,0,1.7,0,2.6c-0.7,0-1.5,0-2.2,0c-0.4,0-0.5-0.1-0.5-0.5c0-0.7,0-1.4,0-2.1l0,0
		C45,43.7,45.9,43.7,46.8,43.8L46.8,43.8z"/>
	<path class="st9" d="M44,43.8c-0.7,0-1.4,0-2.1,0c-0.4,0-0.5-0.1-0.5-0.5c0-0.6,0-1.2,0-1.8c0-0.4,0.1-0.5,0.5-0.5
		c0.7,0,1.4,0,2.1,0c0,0,0,0,0,0C44.1,41.9,44.1,42.8,44,43.8L44,43.8z"/>
	<path class="st9" d="M46.8,41c0.9,0,1.8,0,2.7,0c0,0.7,0,1.5,0,2.2c0,0.4-0.1,0.5-0.5,0.5c-0.7,0-1.5,0-2.2,0c0,0,0,0,0,0
		C46.8,42.8,46.8,41.9,46.8,41L46.8,41z"/>
	<path class="st8" d="M46.8,54.6c0-1.8,0-3.7,0-5.5c1.8,0,3.7,0,5.5,0c0,1.8,0,3.7,0,5.5C50.5,54.6,48.6,54.6,46.8,54.6z"/>
	<path class="st10" d="M46.8,41c0,0.9,0,1.8,0,2.7c-0.9,0-1.8,0-2.7,0c0-0.9,0-1.8,0-2.7C45,41,45.9,41,46.8,41z"/>
</g>
</svg>
