<?xml version="1.0" encoding="UTF-8"?><svg id="Layer_2" xmlns="http://www.w3.org/2000/svg" viewBox="0 0 19.45 17.67"><defs><style>.cls-1{fill:#fff;}.cls-2{fill:#5a555c;}.cls-3{fill:#f54b4b;}</style></defs><g id="Layer_1-2"><g><g><g><g><path class="cls-3" d="M17.05,8.84H.61C.61,4.3,4.29,.61,8.83,.61s8.22,3.69,8.22,8.22Z"/><path class="cls-1" d="M.61,8.84H17.05c0,4.54-3.68,8.22-8.22,8.22S.61,13.37,.61,8.84Z"/></g><g><path class="cls-2" d="M8.83,17.67C3.96,17.67,0,13.71,0,8.84S3.96,0,8.83,0s8.84,3.96,8.84,8.84-3.96,8.84-8.84,8.84ZM8.83,1.23C4.64,1.23,1.23,4.64,1.23,8.84s3.41,7.61,7.6,7.61,7.61-3.41,7.61-7.61S13.02,1.23,8.83,1.23Z"/><rect class="cls-2" x=".07" y="8.22" width="17.16" height="1.23"/></g></g><g><circle class="cls-1" cx="8.83" cy="9.08" r="2.52"/><path class="cls-2" d="M10.05,6.19c1.12,.48,1.91,1.59,1.91,2.89,0,1.73-1.4,3.13-3.13,3.13s-3.13-1.4-3.13-3.13,1.41-3.13,3.13-3.13c.43,0,.84,.09,1.22,.25m-1.22,.98c-1.05,0-1.9,.85-1.9,1.9s.85,1.9,1.9,1.9,1.9-.85,1.9-1.9-.85-1.9-1.9-1.9Z"/></g></g><g><path class="cls-1" d="M15.64,4.6c.07-.19,.22-.34,.41-.41l1.42-.51-1.42-.51c-.19-.07-.34-.22-.41-.41l-.51-1.42-.51,1.42c-.07,.19-.22,.34-.41,.41l-1.42,.51,1.42,.51c.19,.07,.34,.22,.41,.41l.51,1.42,.51-1.42Z"/><path class="cls-1" d="M18.7,5.1c-.1-.04-.18-.12-.22-.22l-.27-.75-.27,.75c-.04,.1-.12,.18-.22,.22l-.75,.27,.75,.27c.1,.04,.18,.12,.22,.22l.27,.75,.27-.75c.04-.1,.12-.18,.22-.22l.75-.27-.75-.27Z"/></g></g></g></svg>