<?xml version="1.0" encoding="utf-8"?>
<!-- Generator: Adobe Illustrator 26.5.1, SVG Export Plug-In . SVG Version: 6.00 Build 0)  -->
<svg version="1.1" id="Layer_1" xmlns="http://www.w3.org/2000/svg" xmlns:xlink="http://www.w3.org/1999/xlink" x="0px" y="0px"
	 viewBox="0 0 96 96" style="enable-background:new 0 0 96 96;" xml:space="preserve">
<style type="text/css">
	.st0{fill:#B50404;}
	.st1{fill:#FEFEFE;}
	.st2{fill:#B4B4B4;}
	.st3{fill:#7A7A7A;}
	.st4{fill:#A2A2A2;}
	.st5{fill:#F24C4C;}
	.st6{fill:#FFFFFF;}
</style>
<g>
	<path d="M45.5,27.9c1.6,0,3.3,0,4.9,0c0,0.8,0,1.7,0,2.5c-0.8,0-1.6,0-2.4,0c-0.8,0-1.7,0-2.5,0C45.5,29.6,45.5,28.7,45.5,27.9z"/>
	<path d="M63,45.5c-0.8,0-1.7,0-2.5,0c0,0,0,0,0,0c0-1.6,0-3.3,0-4.9c0.8,0,1.7,0,2.5,0C63,42.2,63,43.8,63,45.5z"/>
	<path d="M60.5,53.1c0.8,0,1.7,0,2.5,0c0,1.6,0,3.3,0,4.9c-0.8,0-1.7,0-2.5,0l0,0C60.5,56.3,60.5,54.7,60.5,53.1L60.5,53.1z"/>
	<path class="st0" d="M45.5,27.9c0,0.8,0,1.7,0,2.5l0,0c-0.8,0-1.7,0-2.5,0c0,0,0,0,0,0c0-0.8,0-1.7,0-2.5
		C43.8,27.9,44.6,27.9,45.5,27.9z"/>
	<path class="st0" d="M50.4,30.4c0-0.8,0-1.7,0-2.5c0.8,0,1.7,0,2.5,0c0,0.8,0,1.7,0,2.5c0,0,0,0,0,0C52.1,30.4,51.2,30.4,50.4,30.4
		C50.4,30.4,50.4,30.4,50.4,30.4z"/>
	<path class="st0" d="M63,40.5c-0.8,0-1.7,0-2.5,0c0-0.8,0-1.7,0-2.5c0,0,0,0,0,0c0.8,0,1.7,0,2.5,0C63,38.8,63,39.7,63,40.5z"/>
	<path d="M58,48c0,0.8,0,1.7,0,2.5l0,0c-0.7,0-1.4,0-2.2,0c-0.3,0-0.4,0.1-0.4,0.4c0,0.6,0,1.2,0,1.8c0,0.3,0.1,0.4,0.4,0.4
		c0.7,0,1.4,0,2.2,0l0,0c0,1.6,0,3.3,0,4.9l0,0c-0.7,0-1.4,0-2.2,0c-0.3,0-0.4,0.1-0.4,0.4c0,0.5,0,1.1,0,1.6c0,0.5-0.1,0.6-0.6,0.5
		c-3.1,0-6.3,0-9.4,0c-1.7,0-3.4,0-5,0c0-0.7,0-1.4,0-2.1c0-0.3-0.1-0.4-0.4-0.4c-0.7,0-1.4,0-2.1,0c0,0,0,0,0,0c0-0.8,0-1.6,0-2.4
		c0-0.8,0-1.7,0-2.5l0,0c0.7,0,1.4,0,2.2,0c0.3,0,0.4,0,0.4-0.3c0-0.6,0-1.2,0-1.9c0-0.3-0.1-0.3-0.4-0.3c-0.7,0-1.4,0-2.2,0l0,0
		c0-0.8,0-1.7,0-2.5c0,0,0,0,0,0c1.7,0,3.4,0,5.1,0c0,0.7,0,1.4,0,2c0,0.4,0.1,0.5,0.5,0.5c0.4,0,0.8,0,1.3,0c2.6,0,5.2,0,7.7,0
		c0.4,0,0.6-0.1,0.5-0.5c0-0.5,0-1,0-1.5c0-0.4,0.1-0.5,0.5-0.5C54.9,48,56.5,48,58,48L58,48z"/>
	<path d="M52.9,65.6c0,0.7,0,1.4,0,2.2c0,0.3-0.1,0.4-0.4,0.4c-3.1,0-6.2,0-9.2,0c-0.3,0-0.4-0.1-0.4-0.4c0-0.7,0-1.4,0-2.2l0,0
		C46.3,65.6,49.6,65.6,52.9,65.6L52.9,65.6z"/>
	<path d="M43,65.6c-1.5,0-3,0-4.6,0c-0.4,0-0.5-0.1-0.5-0.5c0-0.7,0-1.4,0-2l0,0c0.8,0,1.7,0,2.5,0c0.8,0,1.7,0,2.5,0
		C42.9,63.9,42.9,64.7,43,65.6L43,65.6z"/>
	<path d="M58,63c0,0.7,0,1.4,0,2.1c0,0.3-0.1,0.4-0.4,0.4c-1.5,0-3.1,0-4.6,0c0,0,0,0,0,0c0-0.7,0-1.4,0-2.1c0-0.4,0.1-0.5,0.5-0.5
		C54.9,63.1,56.5,63,58,63L58,63z"/>
	<path class="st0" d="M37.9,33c0-0.7,0-1.4,0-2.1c0-0.3,0.1-0.4,0.4-0.4c1.5,0,3.1,0,4.6,0c0,0,0,0,0,0c0,0.8,0,1.7,0,2.5
		c0,0,0,0,0,0C41.3,33,39.6,33,37.9,33C37.9,33,37.9,33,37.9,33z"/>
	<path d="M37.9,63c-0.7,0-1.4,0-2.1,0c-0.3,0-0.4-0.1-0.4-0.4c0-1.5,0-3.1,0-4.6l0,0c0.8,0,1.7,0,2.5,0l0,0c0,0.8,0,1.7,0,2.5
		C37.9,61.4,37.9,62.2,37.9,63L37.9,63z"/>
	<path d="M60.5,58c0,1.5,0,3,0,4.6c0,0.4-0.1,0.5-0.5,0.5c-0.7,0-1.4,0-2,0c0,0,0,0,0,0c0-1.7,0-3.4,0-5.1l0,0
		C58.8,58,59.7,58,60.5,58L60.5,58z"/>
	<path d="M35.4,58c-0.7,0-1.4,0-2,0c-0.3,0-0.4-0.1-0.4-0.4c0-1.4,0-2.8,0-4.2c0-0.3,0.1-0.4,0.4-0.4c0.7,0,1.4,0,2,0l0,0
		c0,0.8,0,1.7,0,2.5C35.4,56.4,35.4,57.2,35.4,58L35.4,58z"/>
	<path d="M35.4,45.5c-0.7,0-1.4,0-2,0c-0.3,0-0.4-0.1-0.4-0.4c0-1.5,0-3,0-4.6c0.8,0,1.6,0,2.4,0C35.4,42.2,35.4,43.8,35.4,45.5
		L35.4,45.5z"/>
	<path class="st0" d="M35.4,35.5c0-0.7,0-1.4,0-2.2c0-0.3,0.1-0.4,0.4-0.4c0.7,0,1.4,0,2.1,0c0,0,0,0,0,0c0,0.8,0,1.7,0,2.5l0,0
		C37.1,35.5,36.2,35.5,35.4,35.5z"/>
	<path d="M37.9,48c-0.7,0-1.4,0-2.2,0c-0.3,0-0.4-0.1-0.4-0.4c0-0.7,0-1.4,0-2.2c0,0,0,0,0,0c0.7,0,1.4,0,2.2,0
		c0.3,0,0.4,0.1,0.4,0.4C37.9,46.6,37.9,47.3,37.9,48L37.9,48z"/>
	<path d="M35.4,35.5c0.8,0,1.7,0,2.5,0c0,0.7,0,1.4,0,2.2c0,0.3-0.1,0.4-0.4,0.4c-0.7,0-1.4,0-2.2,0l0,0
		C35.4,37.2,35.4,36.3,35.4,35.5z"/>
	<path d="M35.4,53.1c0-0.7,0-1.4,0-2.2c0-0.3,0.1-0.4,0.4-0.4c0.7,0,1.4,0,2.2,0c0,0,0,0,0,0c0,0.8,0,1.7,0,2.5l0,0
		C37.1,53,36.2,53,35.4,53.1L35.4,53.1z"/>
	<path class="st0" d="M35.4,40.5c-0.8,0-1.6,0-2.4,0c0-0.7,0-1.4,0-2.2c0-0.3,0.1-0.4,0.4-0.4c0.7,0,1.4,0,2,0c0,0,0,0,0,0
		C35.4,38.8,35.4,39.7,35.4,40.5z"/>
	<path class="st0" d="M52.9,30.4c1.5,0,3,0,4.6,0c0.4,0,0.5,0.1,0.5,0.5c0,0.7,0,1.4,0,2c0,0,0,0,0,0c-1.7,0-3.4,0-5,0l0,0
		C52.9,32.1,52.9,31.3,52.9,30.4L52.9,30.4z"/>
	<path class="st0" d="M58,33c0.7,0,1.4,0,2.2,0c0.3,0,0.4,0.1,0.4,0.4c0,0.7,0,1.4,0,2.2c-0.8,0-1.7,0-2.5,0c0,0,0,0,0,0
		C58,34.6,58,33.8,58,33L58,33z"/>
	<path d="M58,35.5c0.8,0,1.7,0,2.5,0c0,0.8,0,1.7,0,2.5c0,0,0,0,0,0c-0.7,0-1.4,0-2.1,0c-0.3,0-0.4-0.1-0.4-0.4
		C58,36.9,58,36.2,58,35.5z"/>
	<path d="M58,50.5c0.7,0,1.4,0,2.2,0c0.3,0,0.4,0.1,0.4,0.4c0,0.7,0,1.4,0,2.2c0,0,0,0,0,0c-0.8,0-1.7,0-2.5,0l0,0
		C58,52.2,58,51.4,58,50.5L58,50.5z"/>
	<path d="M60.5,45.5c0,0.7,0,1.4,0,2.2c0,0.3-0.1,0.4-0.4,0.4c-0.7,0-1.4,0-2.2,0c0,0,0,0,0,0c0-0.7,0-1.4,0-2.2
		c0-0.3,0.1-0.4,0.4-0.4C59.1,45.5,59.8,45.5,60.5,45.5L60.5,45.5z"/>
	<path class="st1" d="M45.5,30.4c0.8,0,1.7,0,2.5,0c0,0.8,0,1.7,0,2.5c-0.8,0-1.7,0-2.5,0c0,0,0,0,0,0
		C45.5,32.1,45.5,31.3,45.5,30.4L45.5,30.4z"/>
	<path class="st2" d="M48,32.9c0-0.8,0-1.7,0-2.5c0.8,0,1.6,0,2.4,0c0,0,0,0,0,0c0,0.8,0,1.7,0,2.5l0,0C49.6,32.9,48.8,32.9,48,32.9
		z"/>
	<path class="st3" d="M60.5,45.5c-0.7,0-1.4,0-2.2,0c-0.3,0-0.4,0.1-0.4,0.4c0,0.7,0,1.4,0,2.2c-1.5,0-3,0-4.6,0
		c-0.4,0-0.5,0.1-0.5,0.5c0,0.5,0,1,0,1.5c0,0.4-0.1,0.5-0.5,0.5c-2.6,0-5.2,0-7.7,0c-0.4,0-0.8,0-1.3,0c-0.4,0-0.5-0.1-0.5-0.5
		c0-0.7,0-1.4,0-2c0-0.6,0-1.2,0-1.7c0-0.8,0-0.8,0.8-0.8c1.3,0,2.5,0,3.8,0c0.4,0,0.5-0.1,0.5-0.5c0-0.5,0-1,0-1.5
		c0-0.4,0.1-0.5,0.5-0.5c0.5,0,1,0,1.4,0c0.3,0,0.5-0.1,0.5-0.4c0-1.4,0-2.7,0-4.1c0-0.3-0.1-0.4-0.4-0.4c-0.5,0-0.9,0-1.4,0
		c-0.5,0-0.7-0.1-0.6-0.6c0-0.6,0-1.3,0-1.9c0.7,0,1.4,0,2,0c0.3,0,0.4-0.1,0.4-0.4c0-0.7,0-1.4,0-2.2c0,0,0,0,0,0
		c0.8,0,1.7,0,2.5,0l0,0c0,0.7,0,1.4,0,2c0,0.4,0.1,0.5,0.5,0.5c1.5,0,3,0,4.6,0c0,0,0,0,0,0c0,0.7,0,1.4,0,2.1
		c0,0.3,0.1,0.5,0.4,0.4c0.7,0,1.4,0,2.1,0c0,0.8,0,1.7,0,2.5C60.5,42.2,60.5,43.8,60.5,45.5z"/>
	<path class="st2" d="M58,53c0.8,0,1.7,0,2.5,0c0,1.6,0,3.3,0,4.9c-0.8,0-1.7,0-2.5,0C58,56.3,58,54.7,58,53z"/>
	<path d="M45.5,30.4c0,0.8,0,1.7,0,2.5c-0.8,0-1.7,0-2.5,0c0-0.8,0-1.7,0-2.5C43.8,30.4,44.7,30.4,45.5,30.4z"/>
	<path d="M52.9,33c-0.8,0-1.7,0-2.5,0c0-0.8,0-1.7,0-2.5c0.8,0,1.7,0,2.5,0C52.9,31.3,52.9,32.1,52.9,33z"/>
	<path class="st4" d="M42.9,33c0.8,0,1.7,0,2.5,0c0,0,0,0,0,0c0,0.7,0,1.4,0,2.1c0,0.3,0.1,0.5,0.4,0.4c0.7,0,1.4,0,2.1,0
		c0,0.6,0,1.3,0,1.9c0,0.5,0.2,0.6,0.6,0.6c0.5,0,0.9,0,1.4,0c0.3,0,0.4,0.1,0.4,0.4c0,1.4,0,2.7,0,4.1c0,0.4-0.2,0.4-0.5,0.4
		c-0.5,0-1,0-1.4,0c-0.4,0-0.5,0.1-0.5,0.5c0,0.5,0,1,0,1.5c0,0.4-0.1,0.5-0.5,0.5c-1.3,0-2.5,0-3.8,0c-0.8,0-0.8,0-0.8,0.8
		c0,0.6,0,1.2,0,1.7c-1.7,0-3.4,0-5.1,0c0-0.7,0-1.4,0-2.2c0-0.3-0.1-0.4-0.4-0.4c-0.7,0-1.4,0-2.2,0c0-1.6,0-3.3,0-4.9
		c0-0.8,0-1.7,0-2.5c0.7,0,1.4,0,2.2,0c0.3,0,0.4-0.1,0.4-0.4c0-0.7,0-1.4,0-2.2c0,0,0,0,0,0c1.5,0,3.1,0,4.6,0
		c0.3,0,0.4-0.1,0.4-0.4C42.9,34.4,43,33.7,42.9,33L42.9,33z"/>
	<path class="st2" d="M58,58c0,1.7,0,3.4,0,5.1c-1.5,0-3.1,0-4.6,0c-0.4,0-0.5,0.1-0.5,0.5c0,0.7,0,1.4,0,2.1c-3.3,0-6.7,0-10,0
		c0-0.8,0-1.7,0-2.5c0.7,0,1.3,0,2,0c0.4,0,0.6-0.1,0.6-0.6c0-0.7,0-1.3,0-2c3.1,0,6.3,0,9.4,0c0.4,0,0.6-0.1,0.6-0.5
		c0-0.5,0-1.1,0-1.6c0-0.3,0.1-0.4,0.4-0.4C56.5,58,57.3,58,58,58z"/>
	<path class="st1" d="M45.5,60.5c0,0.7,0,1.3,0,2c0,0.5-0.2,0.6-0.6,0.6c-0.7,0-1.3,0-2,0c-0.8,0-1.7,0-2.5,0c0-0.8,0-1.7,0-2.5l0,0
		C42.1,60.5,43.8,60.5,45.5,60.5z"/>
	<path class="st1" d="M37.9,53.1c0-0.8,0-1.7,0-2.5c0.7,0,1.4,0,2.2,0c0.3,0,0.4,0,0.4,0.3c0,0.6,0,1.2,0,1.9c0,0.3-0.1,0.3-0.4,0.3
		C39.3,53,38.6,53.1,37.9,53.1z"/>
	<path class="st2" d="M58,50.5c0,0.8,0,1.7,0,2.5c-0.7,0-1.4,0-2.2,0c-0.3,0-0.4-0.1-0.4-0.4c0-0.6,0-1.2,0-1.8
		c0-0.3,0.1-0.4,0.4-0.4C56.5,50.5,57.3,50.5,58,50.5z"/>
	<path class="st1" d="M35.4,53c0.8,0,1.7,0,2.5,0c0,0.8,0,1.7,0,2.5c-0.8,0-1.7,0-2.5,0C35.4,54.7,35.4,53.9,35.4,53z"/>
	<path class="st1" d="M37.9,60.5c0-0.8,0-1.7,0-2.5c0.7,0,1.4,0,2.1,0c0.3,0,0.4,0.1,0.4,0.4c0,0.7,0,1.4,0,2.1l0,0
		C39.6,60.5,38.8,60.5,37.9,60.5z"/>
	<path class="st2" d="M35.4,55.6c0.8,0,1.7,0,2.5,0c0,0.8,0,1.6,0,2.4c-0.8,0-1.7,0-2.5,0C35.4,57.2,35.4,56.4,35.4,55.6z"/>
	<path class="st2" d="M37.9,60.5c0.8,0,1.7,0,2.5,0c0,0.8,0,1.7,0,2.5c-0.8,0-1.7,0-2.5,0C37.9,62.2,37.9,61.4,37.9,60.5z"/>
	<path d="M43,33c0,0.7,0,1.4,0,2.1c0,0.3-0.1,0.4-0.4,0.4c-1.5,0-3.1,0-4.6,0c0-0.8,0-1.7,0-2.5C39.6,33,41.3,33,43,33z"/>
	<path d="M58,35.5c-1.5,0-3,0-4.6,0c-0.4,0-0.5-0.1-0.5-0.5c0-0.7,0-1.4,0-2c1.7,0,3.4,0,5,0C58,33.8,58,34.6,58,35.5z"/>
	<path d="M48,35.5c-0.7,0-1.4,0-2.1,0c-0.4,0-0.4-0.1-0.4-0.4c0-0.7,0-1.4,0-2.1c0.8,0,1.7,0,2.5,0c0.8,0,1.6,0,2.4,0
		c0,0.7,0,1.4,0,2.2c0,0.3-0.1,0.4-0.4,0.4C49.4,35.5,48.7,35.5,48,35.5z"/>
</g>
<g>
	<g>
		<circle class="st5" cx="70.6" cy="28.6" r="6.6"/>
	</g>
	<g>
		<g>
			<path class="st6" d="M66.9,33.1c-0.2,0-0.5-0.1-0.7-0.3c-0.4-0.4-0.4-1,0-1.3l7.1-7.1c0.4-0.4,1-0.4,1.3,0c0.4,0.4,0.4,1,0,1.3
				l-7.1,7.1C67.4,33,67.2,33.1,66.9,33.1z"/>
		</g>
		<g>
			<path class="st6" d="M74.2,33.2c-0.2,0-0.5-0.1-0.7-0.3l-7.1-7.1c-0.4-0.4-0.4-1,0-1.3c0.4-0.4,1-0.4,1.3,0l7.1,7.1
				c0.4,0.4,0.4,1,0,1.3C74.7,33.1,74.5,33.2,74.2,33.2z"/>
		</g>
	</g>
</g>
</svg>
