<?xml version="1.0" encoding="UTF-8"?><svg id="Layer_1" xmlns="http://www.w3.org/2000/svg" xmlns:xlink="http://www.w3.org/1999/xlink" viewBox="0 0 582.82 53.15"><defs><style>.cls-1{fill:#d83a3b;}.cls-2{fill:#c52b2b;}.cls-3{fill:#9dc3e6;stroke:#efeff3;stroke-miterlimit:10;stroke-width:2px;}.cls-4{fill:#7fdf89;}.cls-5{fill:#f1cd5f;}.cls-6{fill:#f24c4c;}.cls-7{clip-path:url(#clippath);}.cls-8{fill:none;}.cls-9{fill:#c22826;}</style><clipPath id="clippath"><rect class="cls-8" width="582.67" height="325.33"/></clipPath></defs><g class="cls-7"><rect class="cls-6" width="582.67" height="325.33"/><g><path class="cls-6" d="M-18.44,51.56H82.59l44.89-29.33h464.3V-1.78H-18.89s.89,53.78,.44,53.33Z"/><path class="cls-9" d="M-18.67,52.74l-2.19-2.19h1.5c.16-5.19-.22-33.32-.54-52.32l-.02-1.02H592.78V23.22H127.78l-44.89,29.33H-18.23l-.44,.19Zm1.28-2.19H82.29l44.89-29.33h463.59V-.78H-17.87c.05,3.35,.23,14.46,.37,25.59,.21,16.61,.28,23.12,.11,25.75Z"/></g><rect class="cls-2" x="562.22" width="21.63" height="21.63"/></g><circle class="cls-3" cx="23.78" cy="22.04" r="15"/><circle class="cls-1" cx="49.83" cy="12.77" r="5.72"/><circle class="cls-5" cx="63.97" cy="12.77" r="5.72"/><circle class="cls-4" cx="76.77" cy="12.77" r="5.72"/></svg>