<?xml version="1.0" encoding="UTF-8"?><svg id="Layer_1" xmlns="http://www.w3.org/2000/svg" viewBox="0 0 1024 78.63"><defs><style>.cls-1{fill:#d83a3b;}.cls-2{fill:#9dc3e6;stroke:#efeff3;stroke-miterlimit:10;stroke-width:2px;}.cls-3{fill:#7fdf89;}.cls-4{fill:#f1cd5f;}.cls-5{fill:#f24c4c;}.cls-6{fill:#c22826;}</style></defs><g><path class="cls-5" d="M1.15,77.38H147.86l76.02-37.82h810.69V-1.08H.4s1.51,79.22,.75,78.47Z"/><path class="cls-6" d="M.78,79.39l-3.71-3.7H-.39C-.13,66.91-.76,31.11-1.29-1.06l-.03-1.72H1036.26V41.25H224.38l-76.02,37.82H1.52l-.74,.32Zm2.16-3.7H147.35l76.02-37.82h809.5V.61H2.12c.09,5.67,.39,24.49,.63,43.33,.35,28.14,.48,27.3,.19,31.75Z"/></g><circle class="cls-2" cx="59.13" cy="38.16" r="25.39"/><circle class="cls-1" cx="103.24" cy="22.46" r="9.69"/><circle class="cls-4" cx="127.19" cy="22.46" r="9.69"/><circle class="cls-3" cx="148.86" cy="22.46" r="9.69"/></svg>