<?xml version="1.0" encoding="UTF-8"?><svg id="Layer_1" xmlns="http://www.w3.org/2000/svg" viewBox="0 0 26.61 26.61"><defs><style>.cls-1{fill:#fff;}.cls-2{fill:#f24c4c;}</style></defs><circle class="cls-2" cx="13.31" cy="13.31" r="13.31"/><g><path class="cls-1" d="M6.01,22.26c-.49,0-.97-.19-1.34-.56-.74-.74-.74-1.94,0-2.68L18.88,4.81c.74-.74,1.94-.74,2.68,0s.74,1.94,0,2.68L7.35,21.71c-.37,.37-.85,.56-1.34,.56Z"/><path class="cls-1" d="M20.6,22.36c-.49,0-.97-.19-1.34-.56L5.06,7.59c-.74-.74-.74-1.94,0-2.68,.74-.74,1.94-.74,2.68,0l14.21,14.21c.74,.74,.74,1.94,0,2.68-.37,.37-.86,.56-1.34,.56Z"/></g></svg>