<?xml version="1.0" encoding="UTF-8"?><svg id="Layer_1" xmlns="http://www.w3.org/2000/svg" viewBox="0 0 26.61 26.61"><defs><style>.cls-1{fill:#fff;}.cls-2{fill:#00a14b;}</style></defs><circle class="cls-2" cx="13.31" cy="13.31" r="13.31"/><g><path class="cls-1" d="M10.92,22.26c-.42,0-.84-.14-1.19-.42-.81-.66-.94-1.85-.28-2.67L19.8,6.33c.65-.82,1.84-.94,2.67-.29,.81,.66,.94,1.85,.28,2.67l-10.35,12.85c-.37,.47-.92,.71-1.47,.71Z"/><path class="cls-1" d="M10.63,22.36c-.48,0-.97-.19-1.34-.56l-4.95-4.94c-.74-.74-.74-1.94,0-2.68s1.93-.75,2.68,0l4.95,4.94c.74,.74,.74,1.94,0,2.68-.37,.37-.85,.56-1.34,.56Z"/></g></svg>