<?xml version="1.0" encoding="UTF-8"?><svg id="Layer_2" xmlns="http://www.w3.org/2000/svg" viewBox="0 0 17.66 17.67"><defs><style>.cls-1{fill:#fff;}.cls-2{fill:#5a555c;}.cls-3{fill:#f54b4b;}.cls-4{fill:#bfdbf3;}</style></defs><g id="Layer_1-2"><g><g><g><path class="cls-3" d="M17.05,8.84H.61C.61,4.3,4.29,.61,8.83,.61s8.22,3.69,8.22,8.22Z"/><path class="cls-1" d="M.61,8.84H17.05c0,4.54-3.68,8.22-8.22,8.22S.61,13.37,.61,8.84Z"/></g><g><path class="cls-2" d="M8.83,17.67C3.96,17.67,0,13.71,0,8.84S3.96,0,8.83,0s8.84,3.96,8.84,8.84-3.96,8.84-8.84,8.84ZM8.83,1.23C4.64,1.23,1.23,4.64,1.23,8.84s3.41,7.61,7.6,7.61,7.61-3.41,7.61-7.61S13.02,1.23,8.83,1.23Z"/><rect class="cls-2" x=".07" y="8.22" width="17.16" height="1.23"/></g></g><g><circle class="cls-4" cx="8.83" cy="9.08" r="2.52"/><path class="cls-2" d="M8.83,12.21c-1.73,0-3.13-1.4-3.13-3.13s1.41-3.13,3.13-3.13,3.13,1.4,3.13,3.13-1.4,3.13-3.13,3.13Zm0-5.04c-1.05,0-1.9,.85-1.9,1.9s.85,1.9,1.9,1.9,1.9-.85,1.9-1.9-.85-1.9-1.9-1.9Z"/></g></g></g></svg>